<svg xmlns="http://www.w3.org/2000/svg" viewBox="0 0 901 567">
  <path
    d="M0 567V322.537C0 177.907 118.417 60.156 263.864 60.156c55.347 0 105.546 16.639 148.022 46.077C462.084 40.957 540.6 0 628.126 0 780.009 0 901 121.591 901 271.34V567H0zm695.459-214.963c-15.94 15.939-37.457 25.502-58.974 25.502-23.112 0-44.63-9.563-61.365-27.893-8.766-9.563-15.142-20.72-19.923-33.471h256.615C814.203 305.017 815 294.657 815 283.5 815 182.288 732.915 101 632.5 101S450 182.288 450 283.5C450 383.915 532.085 466 632.5 466c54.99 0 105.197-24.705 137.871-63.755l-74.912-50.208zM554.286 257.43c4.836-14.324 12.09-27.852 21.764-38.992 16.927-17.507 38.691-27.056 62.067-27.056 22.57 0 45.14 9.549 61.262 27.056 10.479 11.14 17.733 24.668 21.764 38.992H554.286z"
  />
</svg>
